<svg width="80" height="80" viewBox="0 0 80 80" fill="none" xmlns="http://www.w3.org/2000/svg">
<g clip-path="url(#clip0_223_2373)">
<path fill-rule="evenodd" clip-rule="evenodd" d="M40 0.986694C17.91 0.986694 0 18.8934 0 40.9867C0 58.66 11.46 73.6534 27.3533 78.9434C29.3533 79.3134 30.0867 78.0767 30.0867 77.02C30.0867 76.0667 30.05 72.9167 30.0333 69.5734C18.9067 71.9934 16.5567 64.8534 16.5567 64.8534C14.7367 60.23 12.1167 59 12.1167 59C8.48667 56.5167 12.39 56.57 12.39 56.57C16.4067 56.8534 18.52 60.6934 18.52 60.6934C22.0867 66.8067 27.8767 65.04 30.16 64.0167C30.52 61.43 31.5567 59.6667 32.7 58.6667C23.8167 57.6567 14.4767 54.2267 14.4767 38.9C14.4767 34.5334 16.04 30.9634 18.6 28.1634C18.1833 27.1534 16.8133 23.0867 18.9867 17.5767C18.9867 17.5767 22.3467 16.5034 29.99 21.6767C33.18 20.79 36.6 20.3467 40 20.33C43.4 20.3467 46.8233 20.79 50.02 21.6767C57.6533 16.5 61.01 17.5767 61.01 17.5767C63.1867 23.0867 61.8167 27.1534 61.4033 28.1634C63.9667 30.9634 65.52 34.5334 65.52 38.9C65.52 54.2634 56.1633 57.6467 47.2567 58.6367C48.69 59.8767 49.97 62.3134 49.97 66.0434C49.97 71.3967 49.9233 75.7034 49.9233 77.02C49.9233 78.0834 50.6433 79.3334 52.67 78.94C68.5567 73.6434 80.0033 58.6567 80.0033 40.99C80 18.8967 62.09 0.986694 40 0.986694Z" fill="white"/>
<path d="M15.15 58.42C15.0633 58.62 14.75 58.68 14.4633 58.5434C14.1733 58.4134 14.01 58.14 14.1033 57.9434C14.19 57.74 14.5033 57.6834 14.7933 57.82C15.0833 57.9467 15.25 58.22 15.15 58.42Z" fill="white"/>
<path d="M16.77 60.2267C16.58 60.4034 16.2067 60.3201 15.9533 60.0434C15.69 59.7634 15.6433 59.3901 15.8367 59.2134C16.0333 59.0367 16.3933 59.1201 16.6567 59.4001C16.92 59.6767 16.97 60.0467 16.77 60.2267Z" fill="white"/>
<path d="M18.3467 62.5301C18.1 62.7001 17.7 62.5401 17.4533 62.1867C17.2067 61.8301 17.2067 61.4034 17.46 61.2334C17.7067 61.0634 18.1033 61.2167 18.3533 61.5701C18.5967 61.9301 18.5967 62.3567 18.3467 62.5301Z" fill="white"/>
<path d="M20.5067 64.7567C20.2867 65 19.82 64.9334 19.48 64.6034C19.13 64.2801 19.0333 63.8234 19.2533 63.58C19.4767 63.3367 19.9467 63.4067 20.29 63.7334C20.6367 64.0567 20.74 64.5167 20.5067 64.7567Z" fill="white"/>
<path d="M23.49 66.0467C23.3933 66.36 22.9433 66.5034 22.49 66.37C22.0367 66.2334 21.74 65.8667 21.8333 65.55C21.9267 65.2334 22.38 65.0867 22.8367 65.23C23.2867 65.3634 23.5833 65.73 23.49 66.0467Z" fill="white"/>
<path d="M26.7633 66.2867C26.7733 66.6167 26.39 66.8901 25.9133 66.8967C25.4367 66.9067 25.0467 66.6401 25.0433 66.3167C25.0433 65.9834 25.42 65.7134 25.8967 65.7034C26.3733 65.6934 26.7633 65.9601 26.7633 66.2867Z" fill="white"/>
<path d="M29.81 65.77C29.8667 66.09 29.5367 66.4233 29.0633 66.51C28.6 66.5967 28.17 66.3967 28.11 66.0767C28.0533 65.7467 28.39 65.4167 28.8533 65.33C29.3233 65.2467 29.75 65.44 29.81 65.77Z" fill="white"/>
</g>
<defs>
<clipPath id="clip0_223_2373">
<rect width="80" height="80" fill="white"/>
</clipPath>
</defs>
</svg>
